<svg xmlns="http://www.w3.org/2000/svg" xmlns:xlink="http://www.w3.org/1999/xlink" width="400" height="400" viewBox="0 0 595.28 841.89" fill-rule="evenodd">
  <rect id="svgEditorBackground" x="0" y="0" width="212.12" height="300" fill="none"/>
  <path d="M72 414.89C83.33 414.89 94.67 414.89 106 414.89 106 516.21 106 617.57 106 718.89 221.66 718.89 337.35 718.89 453 718.89 453 730.89 453 742.89 453 754.89 326.01 754.89 198.99 754.89 72 754.89 72 641.57 72 528.21 72 414.89Z" fill="#419AD2"/>
  <path d="M138.5 414.89C152.67 414.89 166.84 414.89 181 414.89 181 494.55 181 574.23 181 653.89 250.66 653.72 320.34 653.56 390 653.39 390 589.06 390 524.72 390 460.39 381.33 460.39 372.67 460.39 364 460.39 378.67 445.73 393.34 431.06 408 416.39 422.83 431.22 437.67 446.06 452.5 460.89 443.33 460.89 434.17 460.89 425 460.89 425 538.22 425 615.56 425 692.89 329.51 692.72 233.99 692.56 138.5 692.39 138.5 599.9 138.5 507.38 138.5 414.89z" fill="white"/>
</svg>